<svg xmlns="http://www.w3.org/2000/svg" width="1400" height="900" viewBox="0 0 1400 900" fill="none">
  <rect width="1400" height="900" fill="#F7EEE8"/>
  <rect x="84" y="76" width="1232" height="748" rx="32" fill="#FFFDFC" stroke="#E7D7CD" stroke-width="2"/>
  <path d="M84 654C292 570 442 632 626 540C789 459 850 304 1038 272C1166 250 1256 291 1316 322V824H84V654Z" fill="#F0DDD2"/>
  <circle cx="1083" cy="261" r="102" fill="#2F211D"/>
  <circle cx="1083" cy="261" r="68" fill="#F2673D"/>
  <circle cx="1083" cy="261" r="33" fill="#F7EEE8"/>
  <path d="M181 197H671" stroke="#2F211D" stroke-width="7" stroke-linecap="round"/>
  <path d="M181 260H546" stroke="#2F211D" stroke-width="7" stroke-linecap="round"/>
  <text x="181" y="392" fill="#2F211D" font-family="PingFang SC, Noto Sans SC, Microsoft YaHei, sans-serif" font-size="78" font-weight="700">保险产品说明</text>
  <text x="181" y="489" fill="#2F211D" font-family="PingFang SC, Noto Sans SC, Microsoft YaHei, sans-serif" font-size="78" font-weight="700">PPT 方案</text>
  <text x="185" y="582" fill="#766C66" font-family="PingFang SC, Noto Sans SC, Microsoft YaHei, sans-serif" font-size="30" font-weight="500">产品价值梳理 / 条款可视化 / 代理人培训</text>
  <g transform="translate(184 684)">
    <rect width="216" height="64" rx="16" fill="#2F211D"/>
    <text x="28" y="42" fill="white" font-family="PingFang SC, Noto Sans SC, Microsoft YaHei, sans-serif" font-size="24" font-weight="600">INSURANCE DECK</text>
  </g>
  <text x="1092" y="751" fill="#A99A92" font-family="Arial, sans-serif" font-size="28" font-weight="700">01 / 03</text>
</svg>
