<svg xmlns="http://www.w3.org/2000/svg" width="1000" height="1400" viewBox="0 0 1000 1400" fill="none">
  <rect width="1000" height="1400" fill="#F5EBE5"/>
  <rect x="70" y="70" width="860" height="1260" rx="34" fill="#FFFDFC" stroke="#E8D8CE" stroke-width="2"/>
  <circle cx="744" cy="268" r="128" fill="#F2673D" fill-opacity=".18"/>
  <circle cx="744" cy="268" r="78" fill="#F2673D" fill-opacity=".32"/>
  <path d="M168 823C276 698 395 737 484 638C574 537 543 404 656 346C725 311 802 328 868 365V1248H168V823Z" fill="#EFE0D7"/>
  <path d="M170 266H574" stroke="#2F211D" stroke-width="8" stroke-linecap="round"/>
  <path d="M170 322H436" stroke="#2F211D" stroke-width="8" stroke-linecap="round"/>
  <text x="164" y="486" fill="#2F211D" font-family="PingFang SC, Noto Sans SC, Microsoft YaHei, sans-serif" font-size="72" font-weight="700">客户教育海报</text>
  <text x="164" y="581" fill="#2F211D" font-family="PingFang SC, Noto Sans SC, Microsoft YaHei, sans-serif" font-size="72" font-weight="700">系列视觉</text>
  <text x="168" y="676" fill="#766C66" font-family="PingFang SC, Noto Sans SC, Microsoft YaHei, sans-serif" font-size="31" font-weight="500">用更直观的视觉解释保障、风险和规划。</text>
  <g transform="translate(168 1040)">
    <rect width="224" height="76" rx="18" fill="#2F211D"/>
    <text x="32" y="49" fill="#FFFDFC" font-family="PingFang SC, Noto Sans SC, Microsoft YaHei, sans-serif" font-size="28" font-weight="600">海报主视觉</text>
  </g>
  <g stroke="#F2673D" stroke-width="5" stroke-linecap="round">
    <path d="M646 934L704 992L822 854"/>
    <path d="M622 1000C634 1083 697 1138 760 1138C831 1138 882 1077 882 1000C882 924 831 861 760 861C697 861 634 917 622 1000Z"/>
  </g>
</svg>
