<svg xmlns="http://www.w3.org/2000/svg" viewBox="0 0 1600 900" role="img" aria-labelledby="title desc">
  <title id="title">暗色 AI 科技演示 PPT 封面</title>
  <desc id="desc">暗色科技风格 PPT 封面。</desc>
  <defs>
    <radialGradient id="glow" cx=".7" cy=".35" r=".65">
      <stop offset="0" stop-color="#39d2d8" stop-opacity=".42"/>
      <stop offset=".48" stop-color="#ef7048" stop-opacity=".18"/>
      <stop offset="1" stop-color="#130f12" stop-opacity="0"/>
    </radialGradient>
    <filter id="shadow" x="-20%" y="-20%" width="140%" height="140%">
      <feDropShadow dx="0" dy="34" stdDeviation="44" flood-color="#000" flood-opacity=".35"/>
    </filter>
  </defs>
  <rect width="1600" height="900" fill="#120f12"/>
  <rect width="1600" height="900" fill="url(#glow)"/>
  <g opacity=".28" stroke="#fff" stroke-width="1">
    <path d="M150 220h1300M150 350h1300M150 480h1300M150 610h1300"/>
    <path d="M310 110v680M580 110v680M850 110v680M1120 110v680M1390 110v680"/>
  </g>
  <g filter="url(#shadow)">
    <rect x="150" y="120" width="1300" height="660" rx="36" fill="#191518" opacity=".9"/>
    <circle cx="1210" cy="282" r="138" fill="#39d2d8" opacity=".14"/>
    <path d="M990 612c110-166 255-258 414-278" fill="none" stroke="#39d2d8" stroke-width="5" opacity=".8"/>
    <text x="236" y="320" fill="#fff9f4" font-family="PingFang SC, Noto Sans SC, Microsoft YaHei, sans-serif" font-size="86" font-weight="600">让你的 PPT</text>
    <text x="236" y="424" fill="#fff9f4" font-family="PingFang SC, Noto Sans SC, Microsoft YaHei, sans-serif" font-size="86" font-weight="600">像产品发布</text>
    <text x="236" y="528" fill="#fff9f4" font-family="PingFang SC, Noto Sans SC, Microsoft YaHei, sans-serif" font-size="86" font-weight="600">而不是内部材料</text>
    <text x="240" y="622" fill="#9ee8ea" font-family="Inter, Arial, sans-serif" font-size="28" font-weight="700" letter-spacing="4">AI PRESENTATION SYSTEM</text>
    <rect x="240" y="675" width="190" height="70" rx="35" fill="#fff9f4"/>
    <text x="335" y="720" text-anchor="middle" fill="#17100e" font-family="Inter, Arial, sans-serif" font-size="22" font-weight="800">PPTX</text>
  </g>
</svg>
