<svg xmlns="http://www.w3.org/2000/svg" viewBox="0 0 420 420">
  <rect width="420" height="420" rx="32" fill="#fff8f0"/>
  <rect x="42" y="42" width="96" height="96" rx="14" fill="#171414"/>
  <rect x="66" y="66" width="48" height="48" rx="8" fill="#fff8f0"/>
  <rect x="282" y="42" width="96" height="96" rx="14" fill="#171414"/>
  <rect x="306" y="66" width="48" height="48" rx="8" fill="#fff8f0"/>
  <rect x="42" y="282" width="96" height="96" rx="14" fill="#171414"/>
  <rect x="66" y="306" width="48" height="48" rx="8" fill="#fff8f0"/>
  <g fill="#171414">
    <rect x="170" y="54" width="28" height="28" rx="5"/>
    <rect x="214" y="54" width="28" height="28" rx="5"/>
    <rect x="170" y="98" width="72" height="28" rx="5"/>
    <rect x="258" y="170" width="28" height="72" rx="5"/>
    <rect x="302" y="170" width="76" height="28" rx="5"/>
    <rect x="170" y="170" width="56" height="28" rx="5"/>
    <rect x="170" y="214" width="28" height="72" rx="5"/>
    <rect x="214" y="258" width="72" height="28" rx="5"/>
    <rect x="302" y="258" width="28" height="28" rx="5"/>
    <rect x="346" y="258" width="32" height="76" rx="5"/>
    <rect x="170" y="330" width="116" height="28" rx="5"/>
    <rect x="302" y="346" width="28" height="28" rx="5"/>
  </g>
  <text x="210" y="402" text-anchor="middle" font-family="Inter, Arial, sans-serif" font-size="18" fill="#6f6761">WeChat QR Placeholder</text>
</svg>
